<?xml version="1.0" encoding="UTF-8"?>
<!DOCTYPE svg PUBLIC "-//W3C//DTD SVG 1.1//EN" "http://www.w3.org/Graphics/SVG/1.1/DTD/svg11.dtd">
<!-- Creator: CorelDRAW -->
<svg xmlns="http://www.w3.org/2000/svg" xml:space="preserve" width="65.8757mm" height="47.8235mm" version="1.1" style="shape-rendering:geometricPrecision; text-rendering:geometricPrecision; image-rendering:optimizeQuality; fill-rule:evenodd; clip-rule:evenodd"
viewBox="0 0 11709.68 8500.83"
 xmlns:xlink="http://www.w3.org/1999/xlink"
 xmlns:xodm="http://www.corel.com/coreldraw/odm/2003">
 <defs>
  <style type="text/css">
   <![CDATA[
    .fil0 {fill:white}
   ]]>
  </style>
 </defs>
 <g id="Слой_x0020_1">
  <metadata id="CorelCorpID_0Corel-Layer"/>
  <g id="_1576313140048">
   <path class="fil0" d="M6028.52 4104.95c60.61,-266.15 266.92,-519.26 515.13,-625.82 262.42,-112.66 664.57,-142.04 934.42,-30.11 -27.14,228.2 -287.45,564.51 -471.46,688.03 -257.69,172.99 -696.48,240.63 -924.2,139.71 103.67,-168.08 671.66,-331.48 650.69,-445.9 -36.24,-197.82 -610.07,230.4 -704.58,274.08zm-1235.84 -906.05c193.27,145.12 377.83,474.14 359.53,738.76 -54.38,-68.2 -536.91,-620.45 -613.63,-431.96 -40.83,100.32 356.63,284.44 524.46,572.58 -652.5,58.18 -1121.24,-527.75 -1146.94,-1133.11 338.36,-5.19 607.88,52.01 876.58,253.73zm743.1 -24.32c-300.53,-399.15 -243.88,-967.05 14.74,-1366.15 200.44,-309.29 672.39,-667.47 1041.12,-749.86 88.73,169.13 153.3,495.79 165.95,689.14 46.55,710.86 -459.53,1344.69 -1073.16,1506.66 43.66,-275.39 188.03,-614.18 304.33,-872.45 34.79,-77.23 132.96,-191.76 90.55,-272.09 -108.52,-97.85 -164.71,75.23 -205.54,156.69 -125.83,251.01 -331.19,897.8 -338,908.06zm-107.77 1869.73c-854.54,196.29 -545.6,310 -951.77,80.79 -885.8,-499.86 -1419.49,-1624.5 -1267.57,-2665.3 207.87,-1424.06 1509.06,-2461.81 2952.83,-2285.72 2333.59,284.58 3140.69,3152.61 1449.46,4672.84 -126.22,113.48 -241.83,186.71 -380.07,280.23 -244.55,165.47 -223.53,67.21 -464.77,-4.85 -416.82,-124.48 -742.11,-140.37 -1173.71,-103.42 24.71,-171.52 197.29,-521.37 329.25,-613.45 66.09,-28.17 972.9,355.63 1532.56,-527.75 65.54,-103.47 228.79,-412.25 196.45,-528.45 -150.17,-101.59 -586.45,-134.4 -768.54,-115.97 -249.73,25.28 -449.31,102.99 -640.63,259.29 -410.91,335.76 -302.27,654.17 -482.76,871.92 -39.98,48.21 -65.22,68.84 -102.42,123.41 -27.45,40.24 -57.04,101.55 -87.92,134.24 -28.41,-364.54 20.35,-825.49 73.75,-1189.16 814.68,-229.23 1351.8,-930.1 1263.49,-1774.45 -19.02,-181.79 -120.64,-638.67 -229.16,-777.91 -194.07,-24.07 -732.93,310.79 -892.36,438.93 -564.89,453.98 -791.7,1181.62 -421.62,1866.05 161.63,298.93 135.2,140.78 93.62,503.12 -15.36,133.74 -22.4,528.66 -47.53,613.63l-77.96 -121.65c-51.32,-101.23 11.39,-233.78 -68.58,-533.33 -241.98,-906.44 -1430.89,-930.77 -1495.2,-810.75 -39.64,131.32 51.89,464.7 101.85,594.68 233.46,607.21 682.13,794.85 1320.62,802.79 147,268.04 274.58,482.94 238.65,810.26zm3244 -2031.73c98.94,-1547.1 -1083.98,-2919.58 -2639.7,-3007.76 -2059.71,-116.75 -3571.05,1916.46 -2805.05,3872.04 144.53,369 299.82,569.6 544.23,869.98 212.63,261.33 511.11,449.24 799.45,614.96 292.65,168.19 346.3,-105.89 1078.72,-188.65 367.4,-41.52 898.32,0.09 1235.76,163.53 219.65,106.4 273.76,21.97 468.01,-99.84 763.35,-478.71 1261.06,-1324.82 1318.58,-2224.26z"/>
   <path class="fil0" d="M313.49 5911.48c-76.63,-0.32 -257.48,-11.31 -311.48,21.99 29.01,25.01 -4.18,7.64 48.15,35.73 22.38,12.02 24.14,7.15 51.21,25.05 25.83,17.06 50.09,45.61 62.23,73 40.94,92.43 20.42,1220.18 20.62,1400.08 0.44,435.6 -120.38,254.51 -184.22,373.71 35.18,29.86 7.22,17.03 71.58,21.45l573.01 -2.31c158.08,-0.94 506.39,19.27 640.96,-5.69 7.73,-102.23 54.64,-330.68 20.6,-407.59 -95.83,29.4 -94.94,317.38 -480.27,337.61 -440.72,23.16 -388.62,-22.02 -389.48,-422.52 -0.55,-270.92 1.19,-541.79 -0.68,-812.69 -2.12,-304.16 -50.41,-490.69 129.14,-576.12 66.62,-31.69 24.6,10.03 57.17,-41.63 -18.74,-11.82 -5.81,-7.38 -38.57,-15l-119.45 -4.09c-50.13,0.23 -100.38,-0.76 -150.52,-0.98z"/>
   <path class="fil0" d="M7927.89 7346.94c-105.75,-876.56 677.78,-993.49 755.15,-271.41 95.26,889.02 -668.52,989.49 -755.15,271.41zm-268.57 -60.21c98.62,872.84 1360.71,769.85 1290.66,-149.28 -66.78,-876.42 -1392.4,-751.21 -1290.66,149.28z"/>
   <path class="fil0" d="M3729.74 7136.79c4.69,94.28 -0.07,190.46 0.2,285.44 0.34,117.19 24.65,146.29 -59.92,225.96 -351.88,331.46 -632.13,-126.31 -350.89,-351.15 82.66,-66.09 310.5,-150.27 410.61,-160.25zm-586.36 -220.43c106.26,-77.07 106.14,-309.93 360.65,-308.99 236.09,0.87 232.93,265.49 223.83,437.67 -185.06,149.62 -753.27,104.56 -765.91,512.75 -6.19,199.51 123.82,309.56 315.6,322.29 219.67,14.58 301.17,-80.7 449.82,-186.93 28.74,164.48 -11.8,220.36 250.01,155.73 132.76,-32.8 132.62,-9.62 170.36,-68.12 -183.96,-98.8 -180.31,114.78 -177.04,-539.18 0.92,-188.01 41.01,-450 -103.63,-588.74 -139.02,-133.35 -379.08,-130.68 -554.86,-84.22 -383.04,101.25 -249.83,304.48 -168.83,347.74z"/>
   <path class="fil0" d="M1741.07 7074.9c-23.82,-327.14 325.73,-642.9 559.39,-375.74 39.99,45.74 80.95,136.2 87.3,199.3 11.04,109.85 -20.8,122.19 -117.8,143.54 -175.66,38.7 -348.27,29.19 -528.89,32.9zm-4.44 70.32c167.6,-10.49 752.17,-1.56 855.6,-32.19 132.12,-39.11 9.76,-294.57 -39.35,-365.16 -206.59,-297.03 -737.11,-264.76 -948.39,24.1 -221.75,303.21 -177.99,776.75 134.35,1000.68 158.36,113.53 372.66,139.59 557.51,81.64 100.68,-31.57 403.24,-212.7 326.45,-321.06 -85.91,-3.57 -237.89,338.39 -607.55,188.15 -214.92,-87.35 -307.69,-359.74 -278.61,-576.17z"/>
   <path class="fil0" d="M10326.79 6579.25c26.15,54.29 110.71,28.53 192.77,208.49 75.39,165.29 478.71,1022.89 461.45,1111.16 -7.93,40.58 -94.64,238.05 -119.01,274.35 -91.72,136.59 -155.32,86.09 -274.65,63.67 -139.73,-26.25 -181.26,124.87 -84.75,208.38 330.3,285.94 601.27,-615.99 678.47,-810.19l341.64 -847.55c69.86,-153.92 163.27,-156.3 186.96,-208.72 -3.48,-2.38 -8.44,-4.53 -11.38,-5.6l-37.45 -11.96c-12.98,-2.2 -44.99,-1.96 -59.28,-1.81l-322.41 19.68c52.56,86.18 182.18,35.8 138.61,222.16 -16.66,71.24 -71.81,189.95 -98.92,264.3 -48.78,133.87 -136.98,385.55 -199.56,501.21 -45.45,-40.42 -180.85,-402.01 -214.46,-487.74 -219.44,-559.61 -133.58,-337.57 -49.58,-500.16l-66.46 -19.98c-14.9,-1.6 -58.43,0.14 -75.74,0.52 -107.06,2.31 -343.37,-14.95 -386.26,19.8z"/>
   <path class="fil0" d="M5186 6566.44c-232.41,-40.83 -303.5,59.81 -398.19,-66.75 -247.36,-330.53 -45.4,-616.13 156.42,-517.55 124.68,60.92 86.19,238.6 223.9,213.32 245.25,-45.01 -3.02,-440.83 -396.8,-289.35 -318.48,122.51 -177.63,527.61 -176.28,651.1 -115.81,14.38 -220.66,-31.44 -206.57,52.28 10.04,59.65 97.11,19.54 208.11,35.98 21.31,193.63 2.58,495.56 2.56,701.47 0,82.53 9.42,262.15 -7.87,333.95 -32.07,133.14 -149.12,96.34 -178.25,161.26 48.49,44.19 345.09,16.57 475.94,18.24 94.3,1.19 96.72,9.46 134.44,-17.42 -38.77,-71.95 -148.98,-21.7 -176.05,-169.35 -14.82,-80.84 -8.59,-951.54 -3.38,-1033.68 85.25,-0.66 281.51,20.74 346.5,-14.5l-4.48 -59z"/>
   <path class="fil0" d="M5477.21 7753.28c200.81,136.37 587.71,184.22 799.31,48.19 265.51,-170.7 180.38,-484.22 -75.46,-623.3 -144.35,-78.48 -661.97,-240.13 -462.77,-486.44 91.99,-113.76 264.25,-108.34 378.58,-31.25 72.33,48.78 123.61,132.64 168.07,208.51 35.02,59.76 8.3,47.87 70.78,54.71l8.34 -268.2c-181.38,-141.26 -594.02,-161.06 -783.49,-1.35 -104.57,88.15 -116.5,265.44 -49.29,380.8 63.88,109.67 174.96,169.93 288.35,223.93 95.86,45.65 255.13,112.95 329.56,181.74 221.75,205.02 -109.82,540.78 -435.23,284.99 -210.85,-165.72 -109.94,-264.14 -229.13,-275.18l-7.63 302.84z"/>
   <path class="fil0" d="M9802.02 7848.81c2.15,-4.78 7.91,-2.86 11.45,-5.08 -49.1,-83.37 -162.52,-18.95 -177.15,-212.08 -8.85,-116.8 -1.07,-269.4 -0.82,-390.06 0.32,-158.09 -9.92,-544.51 233.2,-525.9 130.76,10.03 119.08,180.79 262.76,112.07 89.8,-42.93 78.12,-199.35 -12.8,-255.38 -182.93,-112.71 -413.17,80.04 -480.11,223.15 -5.55,-74.64 21.05,-187.19 -27.29,-243.22 -43.92,-27.78 -367.84,32.37 -399.5,68.17 58.59,85.93 180.35,-20.76 183.28,214.12l0.94 784.07c-11.22,215.99 -121.46,130.35 -176.24,224.75 49.7,30.5 234.55,16.99 304.26,16.66 25.44,-0.12 269.17,8.53 278.03,-11.27z"/>
   <path class="fil0" d="M7422.91 6647.22l-1.56 -85.98 -298.36 -4.25 -5.46 -390.06 -51.78 15.78c-25.28,99.01 -64.22,200.88 -129.69,276.87 -26.47,30.73 -81,69.88 -121,89.39 -68.68,33.51 -105.83,13.28 -120.32,76.13 49.4,28.73 118.44,7.61 186.7,22.27 18.43,311.37 -22.06,668.07 4.09,971.25 35.5,411.54 593.49,234.94 550.9,101.98 -54.38,-25.31 -8.51,-18.66 -67.81,12.53 -288.02,151.55 -247.04,-245 -247.47,-341.06 -1.01,-238.3 -11.34,-511.59 2.63,-751.46l299.14 6.59z"/>
  </g>
 </g>
</svg>
